<svg width="50" height="42" viewBox="0 0 50 42" fill="none" xmlns="http://www.w3.org/2000/svg">
<path d="M3.32555 13.5778C3.38585 13.5778 3.44457 13.5727 3.50368 13.5694V36.7575C3.50368 37.6276 4.27095 38.3355 5.21358 38.3355H20.1575V41.115H18.3571V41.8361H31.6425V41.115H29.8421V38.3355H44.786C45.7286 38.3355 46.4955 37.6273 46.4955 36.7575V13.5694C46.555 13.5723 46.6137 13.5778 46.6736 13.5778C48.4022 13.5778 49.8086 12.2796 49.8086 10.684V8.57831C49.8086 8.57794 49.8082 8.57758 49.8082 8.57721C49.8074 8.37031 49.9058 8.6889 44.6015 0.340804C44.5312 0.230938 44.4035 0.163559 44.265 0.163559H39.9347H5.73353C5.59547 0.163559 5.46733 0.230943 5.39711 0.340804C0.0413087 8.77099 0.191622 8.37002 0.191216 8.57721C0.191216 8.57758 0.190819 8.57794 0.190819 8.57831V10.684C0.190819 12.2797 1.59726 13.5778 3.32575 13.5778H3.32555ZM29.0605 41.115H20.9378V38.3355H29.0605V41.115ZM45.7137 36.7575C45.7137 37.2299 45.2971 37.6144 44.7853 37.6144H5.21353C4.70135 37.6144 4.28479 37.2299 4.28479 36.7575V33.8962H45.7142L45.7137 36.7575ZM45.7137 33.1752H4.2843V13.438C5.02737 13.2168 5.64788 12.7459 6.03391 12.1332C6.57744 12.9953 7.58711 13.5779 8.7432 13.5779C9.89928 13.5779 10.9089 12.9956 11.4525 12.1332C11.996 12.9953 13.0053 13.5779 14.1618 13.5779C15.3178 13.5779 16.3275 12.9956 16.871 12.1332C17.4146 12.9953 18.4242 13.5779 19.5803 13.5779C20.7364 13.5779 21.746 12.9956 22.2896 12.1332C22.8331 12.9953 23.8424 13.5779 24.9989 13.5779C26.155 13.5779 27.1646 12.9956 27.7082 12.1332C28.2517 12.9953 29.2614 13.5779 30.4174 13.5779C31.5735 13.5779 32.5832 12.9956 33.1267 12.1332C33.6702 12.9953 34.6799 13.5779 35.836 13.5779C36.9921 13.5779 38.0017 12.9956 38.5453 12.1332C39.0888 12.9953 40.0981 13.5779 41.2546 13.5779C42.4107 13.5779 43.4203 12.9956 43.9639 12.1332C44.3499 12.7459 44.9708 13.2169 45.7135 13.438L45.7137 33.1752ZM13.7438 0.884902L11.1346 8.21831L6.67772 8.21794L10.3146 0.884535L13.7438 0.884902ZM18.0833 0.884902L16.5151 8.21793H12.0265L14.6223 0.884527L18.0833 0.884902ZM35.3753 0.884902L37.9715 8.21831L33.4825 8.21794L31.9143 0.88491L35.3753 0.884902ZM39.683 0.884902L43.3198 8.21831L38.863 8.21794L36.2537 0.88491L39.683 0.884902ZM6.45987 8.93896H11.027C11.0381 10.7077 11.0036 10.692 11.058 11.0689C10.8604 12.084 9.89874 12.8571 8.74347 12.8571C7.58819 12.8571 6.6269 12.0844 6.42896 11.0696C6.48569 10.677 6.44916 10.6338 6.45987 8.93896ZM11.8784 8.93896H16.4456C16.4567 10.7056 16.4218 10.6916 16.4765 11.0692C16.2786 12.084 15.3173 12.8567 14.162 12.8567C13.0068 12.8567 12.0451 12.0836 11.8475 11.0685C11.9043 10.6774 11.8677 10.6298 11.8784 8.93896ZM17.297 8.93896H21.8642C21.8753 10.7077 21.8407 10.692 21.8951 11.0689C21.6975 12.084 20.7359 12.8571 19.5806 12.8571C18.4253 12.8571 17.464 12.0844 17.2661 11.0696C17.3228 10.677 17.2863 10.6338 17.297 8.93896ZM22.7156 8.93896H27.2823C27.2934 10.7056 27.2585 10.6916 27.3133 11.0692C27.1153 12.084 26.154 12.8567 24.9988 12.8567C23.8435 12.8567 22.8818 12.0836 22.6842 11.0685C22.741 10.6774 22.7048 10.6298 22.7156 8.93896ZM28.1341 8.93896H32.7013C32.7124 10.7077 32.6779 10.692 32.7322 11.0689C32.5347 12.084 31.573 12.8571 30.4177 12.8571C29.2624 12.8571 28.3012 12.0844 28.1032 11.0696C28.1599 10.677 28.123 10.6338 28.1341 8.93896ZM33.5523 8.93896H38.1194C38.1306 10.703 38.096 10.6927 38.1504 11.0689C37.9528 12.084 36.9911 12.8571 35.8359 12.8571C34.6806 12.8571 33.7189 12.084 33.5214 11.0689C33.5781 10.6774 33.5416 10.6298 33.5523 8.93896ZM38.9711 8.93896H43.5383C43.5494 10.7056 43.5145 10.6916 43.5693 11.0692C43.3713 12.084 42.41 12.8567 41.2547 12.8567C40.0995 12.8567 39.1378 12.0836 38.9402 11.0685C38.9966 10.6774 38.96 10.6298 38.9711 8.93896ZM32.6172 8.2179H28.1087L27.5815 0.884864H31.0623L32.6172 8.2179ZM27.2562 8.2179H22.7415L23.2552 0.88449H26.7425L27.2562 8.2179ZM21.8892 8.2179H17.3808L18.9356 0.88449H22.4161L21.8892 8.2179ZM49.0267 10.6844C49.0267 11.8826 47.971 12.8571 46.6729 12.8571C45.5177 12.8571 44.5564 12.0844 44.3584 11.0697C44.4152 10.6771 44.3787 10.6339 44.3894 8.9394H49.0267L49.0267 10.6844ZM48.7332 8.2179H44.2497L40.599 0.88449H44.0418L48.7332 8.2179ZM5.95707 0.884864H9.39953L5.74928 8.2179H1.26549L5.95707 0.884864ZM0.971774 8.93893H5.60912C5.62023 10.7056 5.58531 10.6916 5.64006 11.0692C5.4421 12.084 4.48083 12.8566 3.32556 12.8566C2.02789 12.8566 0.971743 11.8821 0.971743 10.6839L0.971774 8.93893Z" fill="#2734E7"/>
<path d="M20.4652 15.6366H6.32164C6.10582 15.6366 5.93085 15.7977 5.93085 15.9973V20.0794C5.93085 20.2787 6.10582 20.4402 6.32164 20.4402H20.4652C20.6811 20.4402 20.856 20.279 20.856 20.0794V15.9969C20.856 15.7977 20.6811 15.6366 20.4652 15.6366ZM20.0744 19.7187H6.71289V16.3576H20.0755L20.0744 19.7187Z" fill="#2734E7"/>
<path d="M43.6408 15.96H41.3441C41.1283 15.96 40.9534 16.1211 40.9534 16.3207V16.6236H40.1988C39.0522 16.6236 38.0477 17.375 37.8108 18.4104L37.6446 19.1365L24.1195 21.0269C23.9287 21.0533 23.7875 21.2053 23.7875 21.3832V27.0075C23.7875 27.2067 23.9624 27.3682 24.1783 27.3682C24.8832 27.3682 20.7597 27.3686 37.5937 27.3664C38.4419 27.3664 39.1318 28.0032 39.1318 28.7865C39.1318 29.4596 38.6188 30.0577 37.8683 30.1814C37.6818 29.5285 37.0411 29.0428 36.2743 29.0428C35.503 29.0428 34.8587 29.5357 34.6786 30.1968L27.897 30.0141C27.6558 29.4468 27.0595 29.0425 26.3592 29.0425C25.4487 29.0425 24.7084 29.7262 24.7084 30.5663C24.7084 31.4083 25.4491 32.0934 26.3592 32.0934C27.2078 32.0934 27.9009 31.4983 27.9946 30.7381L34.6719 30.9179C34.8445 31.5903 35.4955 32.0934 36.2743 32.0934C37.0586 32.0934 37.714 31.5859 37.883 30.9087C39.0562 30.775 39.9126 29.8559 39.9126 28.7861C39.9126 27.6054 38.8724 26.6449 37.5933 26.6449H37.0415L38.3535 19.5287L38.5757 18.5593C38.7367 17.8551 39.4195 17.3442 40.199 17.3442H40.9536V17.6233C40.9536 17.8225 41.1286 17.984 41.3444 17.984H43.641C44.2456 17.984 44.7376 17.5299 44.7376 16.9718C44.7376 16.4137 44.2456 15.9599 43.641 15.9599L43.6408 15.96ZM26.3589 31.3725C25.8793 31.3725 25.4893 31.011 25.4893 30.5665C25.4893 30.1237 25.8797 29.7637 26.3589 29.7637C26.8401 29.7637 27.2321 30.1241 27.2321 30.5665C27.2321 31.011 26.8405 31.3725 26.3589 31.3725ZM36.2739 31.3725C35.7943 31.3725 35.4043 31.011 35.4043 30.5665C35.4043 30.1237 35.7943 29.7637 36.2739 29.7637C36.7552 29.7637 37.1471 30.1241 37.1471 30.5665C37.1471 31.011 36.7552 31.3725 36.2739 31.3725ZM36.6548 24.4431H35.2512V22.6962L36.9873 22.6402L36.6548 24.4431ZM34.47 24.4431H32.7268V22.7775L34.47 22.7211V24.4431ZM24.5685 23.0408L26.8973 22.9658V24.4431H24.5685V23.0408ZM27.6784 22.9405L29.4216 22.8841V24.4431H27.6784V22.9405ZM30.2027 22.1378V20.9062L31.9456 20.6626V22.0817L30.2027 22.1378ZM31.9456 22.8028V24.4431H30.2027V22.8591L31.9456 22.8028ZM29.4215 22.163L27.6783 22.2194V21.2592L29.4215 21.0157V22.163ZM29.4215 25.1642V26.6473H27.6783V25.1642H29.4215ZM30.2027 25.1642H31.9455V26.6473H30.2027V25.1642ZM32.7267 25.1642H34.4699V26.6473H32.7267V25.1642ZM32.7267 22.0565V20.5536L34.4699 20.3101V22.0005L32.7267 22.0565ZM26.8972 21.3681V22.2444L24.5684 22.3195V21.6936L26.8972 21.3681ZM24.5684 25.1642H26.8972V26.6473H24.5684V25.1642ZM35.2507 26.6473V25.1642H36.5215L36.2481 26.6473H35.2507ZM37.1209 21.9148L35.2511 21.9752V20.2005L37.4947 19.8871L37.1209 21.9148ZM43.6403 17.2636H41.7344V16.6817H43.6403C43.8141 16.6817 43.9557 16.8124 43.9557 16.9725C43.9557 17.1328 43.8141 17.2636 43.6403 17.2636Z" fill="#2734E7"/>
<path d="M11.1113 22.0153C11.0026 21.8436 10.7634 21.785 10.5769 21.8857C10.3905 21.986 10.3278 22.2068 10.4365 22.3786L11.2292 23.6325C11.3387 23.8053 11.5783 23.8621 11.7635 23.7621C11.95 23.6618 12.0127 23.441 11.904 23.2692L11.1113 22.0153Z" fill="#2734E7"/>
<path d="M10.7904 25.3144C10.7904 25.1151 10.6154 24.9536 10.3996 24.9536L8.82854 24.954C8.61272 24.954 8.43776 25.1151 8.43776 25.3147C8.43776 25.5139 8.61272 25.6755 8.82854 25.6755H10.3996C10.6154 25.6751 10.7904 25.5139 10.7904 25.3144Z" fill="#2734E7"/>
<path d="M11.7634 26.8669C11.5773 26.7662 11.3377 26.8244 11.229 26.9965L10.4363 28.2504C10.3276 28.4222 10.3907 28.643 10.5767 28.7433C10.7628 28.844 11.0024 28.7854 11.1111 28.6137L11.9038 27.3598C12.0125 27.1877 11.9498 26.9672 11.7634 26.8669Z" fill="#2734E7"/>
<path d="M14.2323 23.6372L15.0179 22.3767C15.1254 22.2039 15.0611 21.9834 14.8742 21.8842C14.687 21.786 14.4486 21.8443 14.341 22.0167L13.5555 23.2772C13.448 23.4501 13.5123 23.6705 13.6991 23.7698C13.8876 23.8694 14.1252 23.8086 14.2323 23.6372Z" fill="#2734E7"/>
<path d="M18.3487 27.0225C18.3352 26.8844 18.2372 26.7658 18.0967 26.7167L12.7414 24.8615C12.5977 24.8117 12.4363 24.8439 12.328 24.9443C12.2193 25.0439 12.1843 25.1933 12.2383 25.3255L14.2438 30.273C14.2965 30.403 14.4251 30.4934 14.5746 30.5059C14.5865 30.507 14.598 30.5073 14.6095 30.5073C14.7464 30.5073 14.8742 30.441 14.9452 30.3315L15.5732 29.3596L16.6638 30.3663C16.8165 30.5073 17.0637 30.5073 17.216 30.3663L18.1975 29.4603C18.2709 29.3926 18.3118 29.301 18.3118 29.2054C18.3118 29.1095 18.2705 29.0179 18.1975 28.9505L17.107 27.9439L18.1594 27.3638C18.2884 27.2931 18.3618 27.1602 18.3487 27.0225ZM17.3692 29.2055L16.9399 29.6017L15.7707 28.5225C15.6969 28.4543 15.5973 28.417 15.4946 28.417C15.4787 28.417 15.4624 28.4181 15.4462 28.4199C15.3268 28.4335 15.2208 28.4976 15.1589 28.5928L14.6904 29.3179L13.2706 25.8158L17.0621 27.1291L16.2758 27.5623C16.1722 27.6191 16.1032 27.7169 16.0881 27.8275C16.0734 27.9377 16.1143 28.0483 16.1996 28.1267L17.3692 29.2055Z" fill="#2734E7"/>
</svg>
