<svg width="44" height="40" viewBox="0 0 44 40" fill="none" xmlns="http://www.w3.org/2000/svg">
<path d="M42.3325 2.31625C41.5917 1.28172 39.3859 0.598373 38.2064 0.484467C36.6489 0.333585 35.3236 0.70639 34.4293 1.91012C34.0495 1.91671 33.6936 2.12582 33.3698 2.37301C33.2647 2.40414 33.1728 2.47665 33.1175 2.57443C32.971 2.69747 32.8315 2.81942 32.7022 2.92269C31.3413 4.00963 29.9806 5.09684 28.6193 6.18378C28.5076 6.27314 28.475 6.38117 28.4919 6.48298C28.3501 6.50788 28.2088 6.52875 28.0656 6.56537C27.7587 6.64374 27.7309 6.97223 27.8744 7.17072C25.2358 9.14275 22.62 11.1401 20.1664 13.3425C17.5527 15.6888 15.3478 18.4226 12.9656 20.9923C11.6846 22.374 10.3105 23.6557 8.79883 24.7826C7.85842 25.4835 6.54696 26.0581 5.89586 27.0872C5.82994 27.1912 5.77172 27.2985 5.71715 27.4076C5.37328 27.6702 5.02905 27.9327 4.68515 28.1949C4.52219 28.3195 4.4951 28.5084 4.54636 28.6652L0.575857 36.5497C0.43377 36.8321 0.63555 37.1368 0.934376 37.1247C0.945729 37.1305 0.950856 37.1397 0.963673 37.1448C6.81283 39.638 13.6349 40.8977 19.6068 38.0651C20.6966 37.548 21.5861 36.6896 22.1747 35.6495C23.077 34.0543 21.4888 32.3675 23.9233 31.4564C26.7926 30.3823 30.079 32.5443 33.1028 31.7036C33.3035 31.6479 33.4324 31.4304 33.373 31.2275C33.0167 30.0124 32.578 28.8478 32.0602 27.7002C32.7307 27.5826 33.403 27.5947 34.0777 27.7518C34.5658 27.8371 34.7746 27.0911 34.2835 27.0055C33.2866 26.8311 32.3993 26.8414 31.408 27.0446C31.1454 27.0985 31.0769 27.4021 31.1765 27.613C31.7068 28.7332 32.1411 29.8692 32.5051 31.0466C29.7718 31.6117 27.0834 30.2135 24.3199 30.5753C22.7192 30.7848 21.3166 31.8669 21.5595 33.5526C22.2113 38.0826 15.1383 38.8865 11.9735 38.9223C8.6512 38.96 5.33855 38.0771 2.26008 36.8488C3.50339 36.5808 4.74848 36.3233 5.99836 36.0871C6.16682 36.0553 6.33893 36.0267 6.51362 36.0003C6.65717 36.0761 6.81135 36.0399 6.92231 35.9432C8.00559 35.7993 9.1665 35.7088 10.2248 35.4679C10.3479 35.581 10.5445 35.622 10.6863 35.5243C10.8445 35.4151 11.0041 35.3071 11.1623 35.1983C11.1935 35.187 11.2272 35.1789 11.2579 35.1672C11.3517 35.1313 11.4454 35.0599 11.4989 34.968C16.5109 31.5315 21.6689 28.2235 26.4736 24.5092C29.0525 22.5152 31.2523 20.0077 33.5279 17.687C34.1281 17.0747 34.7364 16.4537 35.2377 15.7857C35.3937 15.9717 35.7156 16.0259 35.8712 15.7527C36.3341 14.9383 36.8435 14.1671 37.3903 13.4291C37.6038 13.6664 38.0879 13.5939 38.063 13.1955C38.0517 13.0124 38.0253 12.8297 37.9971 12.6469C38.6837 11.8006 39.4345 11.0096 40.2413 10.2644C40.3116 10.2299 40.3687 10.1794 40.4039 10.1113C40.754 9.79414 41.1121 9.48396 41.4857 9.18587C41.5552 9.13057 41.6043 9.06428 41.6424 8.99251C42.4297 8.47907 43.0981 8.0616 43.3138 6.78647C43.5507 5.38641 43.1552 3.46491 42.3327 2.31647L42.3325 2.31625ZM10.7669 24.2059C12.7291 22.5642 14.4012 20.5833 16.0897 18.6722C19.9035 14.356 24.2496 10.8323 28.8566 7.39778C28.9342 7.33992 28.9807 7.26741 29.0042 7.19051C30.1937 7.07955 31.2755 7.46883 32.1646 8.32029C24.0537 15.7709 15.7096 22.9612 7.14458 29.8837C6.97869 29.7808 6.7846 29.8709 6.68169 30.0317C4.00363 28.7005 9.6996 25.0996 10.7671 24.2063L10.7669 24.2059ZM1.61669 36.2012L3.43713 32.5867C4.20947 33.5432 5.01878 34.4675 5.86506 35.3593C4.24094 35.6698 2.59741 35.9991 1.61669 36.2012ZM6.77106 35.1876C5.73175 34.1172 4.74738 32.9987 3.81644 31.8328L5.23956 29.0071C5.2912 28.9049 5.29157 28.8067 5.26483 28.7196C5.29779 28.6943 5.33075 28.6694 5.36371 28.6441C5.28644 29.6227 5.70611 30.551 6.82565 30.9301C6.88937 30.9517 6.94576 30.952 6.99813 30.944C7.6119 31.8558 8.37879 33.2155 9.18035 33.6422C9.31365 33.7132 9.43597 33.7495 9.55389 33.7718C9.70404 34.0527 9.82708 34.3398 9.92889 34.6379C9.19207 34.7448 8.02685 34.9522 6.77106 35.1876ZM9.81644 32.8475C9.76883 32.8292 9.72086 32.8204 9.67142 32.8223C9.46817 32.7607 9.26749 32.5762 9.00162 32.2345C8.54605 31.6486 8.09048 31.0626 7.63531 30.4763C16.2555 23.5121 24.6509 16.2769 32.81 8.77787C33.6226 9.85449 34.4349 10.9312 35.2475 12.0078C33.2096 13.3683 31.5194 15.1008 29.8375 16.8799C27.5819 19.2654 25.1273 21.3031 22.5275 23.3014C19.9626 25.2735 17.3976 27.2451 14.8327 29.2172C13.4517 30.2789 12.0703 31.3409 10.6894 32.4026C10.3089 32.6956 10.0507 32.8494 9.81636 32.8479L9.81644 32.8475ZM30.3214 19.8519C28.4791 21.7306 26.6095 23.4997 24.4734 25.0458C20.1302 28.189 15.6598 31.17 11.2415 34.2088C11.1482 34.1725 11.0409 34.1758 10.9332 34.245C10.9032 34.2644 10.8731 34.2839 10.8435 34.3029C10.7819 34.3424 10.7343 34.4084 10.6988 34.4801C10.6025 34.1776 10.4846 33.8927 10.3436 33.6104C10.5812 33.4716 10.8164 33.2746 11.08 33.0721C14.2368 30.6452 17.3939 28.218 20.5507 25.7911C23.1192 23.8165 25.7582 21.9048 28.1419 19.7054C30.6742 17.3686 32.7452 14.6206 35.6228 12.6843C35.6825 15.4712 32.0673 18.0721 30.3219 19.8518L30.3214 19.8519ZM36.2976 13.6007C36.3991 13.1176 36.4218 12.6049 36.3335 12.0512C36.3035 11.8627 36.1749 11.7788 36.0325 11.7726L33.2258 8.05331C33.124 7.91818 32.9775 7.87643 32.8416 7.89437C31.9258 6.94365 30.7861 6.44275 29.5483 6.40393C29.7303 6.24207 29.9489 6.04395 30.1899 5.82752C30.2232 5.93116 30.3009 6.01795 30.447 6.04432C33.3364 6.56617 36.5077 9.37648 37.167 12.3915C36.8641 12.7841 36.5748 13.1883 36.2976 13.6007ZM38.1755 11.1983C38.0349 11.3492 37.8998 11.5045 37.7654 11.6608C36.8114 8.61546 33.7576 5.91349 30.7594 5.32212C31.5651 4.61607 32.5169 3.83421 33.3559 3.34315C34.1 4.4418 35.3876 5.27674 36.3599 6.12743C37.5918 7.20518 38.9508 8.24852 39.573 9.80234C39.0877 10.2476 38.6245 10.7171 38.1755 11.1983ZM40.3454 9.00475C40.2714 9.05565 40.2015 9.10692 40.1359 9.15929C39.639 8.14013 38.8839 7.33847 38.0177 6.55369C36.8312 5.47885 35.0035 4.37766 34.0546 3.00104C34.1396 2.96881 34.2264 2.93292 34.3062 2.91168C34.4384 2.9765 34.5963 2.97174 34.7142 2.86041C34.8398 2.86444 34.9573 2.88348 35.0558 2.93805C36.6705 3.83563 38.2357 5.05295 39.5503 6.34267C40.2996 7.07803 40.8969 8.11815 40.3454 9.00475ZM42.4822 7.084C42.4057 7.53627 42.0625 7.88234 41.6407 8.18444C41.3074 7.13378 40.0421 5.74112 39.6972 5.40231C38.9318 4.65121 38.0076 4.02644 37.14 3.40093C36.6339 3.03619 35.9762 2.44253 35.2958 2.12509C37.1704 0.363248 41.4034 1.40549 42.2351 3.82065C42.5783 4.81787 42.6566 6.05237 42.4823 7.084H42.4822Z" fill="#2734E7"/>
</svg>
