<svg width="36" height="36" viewBox="0 0 36 36" fill="none" xmlns="http://www.w3.org/2000/svg">
<path d="M35.4333 31.367C35.4333 30.2706 35.009 29.21 34.2309 28.4319L23.8701 18.0703C24.6482 16.4436 25.0725 14.64 25.0725 12.7305C25.0725 12.2002 25.0371 11.705 24.9665 11.2098C24.9311 10.9269 24.6482 10.7146 24.3653 10.75C24.0825 10.7855 23.8701 11.0684 23.9056 11.3512C23.9765 11.811 23.9765 12.2707 23.9765 12.7655C23.9765 18.9539 18.955 23.9753 12.7667 23.9753C6.57832 23.9753 1.62784 18.9185 1.62784 12.7655C1.62784 6.61232 6.6493 1.55574 12.8376 1.55574C17.1165 1.55574 21.0773 4.06642 22.9514 7.92098C23.0928 8.16841 23.4111 8.30984 23.6585 8.16841C23.9059 8.02697 24.0474 7.70866 23.9059 7.46124C21.8904 3.21792 17.5407 0.494843 12.8372 0.494843C6.08274 0.494843 0.566338 5.97603 0.566338 12.7657C0.566338 19.5552 6.08292 25.0366 12.8372 25.0366C14.6762 25.0366 16.4088 24.6477 17.9646 23.9051L28.3613 34.3018C29.1748 35.1153 30.2354 35.5042 31.2963 35.5042C32.3573 35.5042 33.4182 35.1153 34.2313 34.3018C35.0094 33.5241 35.4337 32.4631 35.4337 31.3671L35.4333 31.367ZM29.1035 33.5593L18.9548 23.3746C20.7583 22.3137 22.279 20.8285 23.3396 19.0603L33.4883 29.2091C34.0541 29.7748 34.3724 30.5529 34.3724 31.4015C34.3724 32.215 34.0541 32.9927 33.4883 33.5938C32.286 34.7257 30.3059 34.7257 29.1035 33.5587V33.5593Z" fill="#2734E7"/>
<path d="M11.3866 7.95638L4.52622 14.8168C4.3139 15.0291 4.3139 15.347 4.52622 15.5594C4.73855 15.7717 5.05651 15.7717 5.26884 15.5594L11.3512 9.47704L18.0347 16.1606L29.1385 5.05682L29.0325 5.94086C28.9971 6.22372 29.2094 6.5066 29.4923 6.54204H29.5632C29.8106 6.54204 30.0584 6.32971 30.0935 6.08229L30.4118 3.35922L27.5828 3.00546C27.2999 2.97001 27.017 3.18234 26.9816 3.46521C26.9461 3.74807 27.1585 4.03094 27.4413 4.06639L28.4668 4.20782L18.0351 14.6396L11.3866 7.95638Z" fill="#2734E7"/>
</svg>
