<svg width="48" height="42" viewBox="0 0 48 42" fill="none" xmlns="http://www.w3.org/2000/svg">
<mask id="mask0_3_2" style="mask-type:luminance" maskUnits="userSpaceOnUse" x="0" y="0" width="48" height="42">
<path d="M0 0H47.2322V41.4375H0V0Z" fill="white"/>
</mask>
<g mask="url(#mask0_3_2)">
<path d="M45.0187 0.0543823H2.21438C0.996752 0.0543823 0.000282288 1.05085 0.000282288 2.26848V41.3819H47.2325V2.26848C47.2325 1.05085 46.2364 0.0543823 45.0187 0.0543823ZM13.6538 1.16148H40.9603C41.569 1.16148 42.0674 1.65952 42.0674 2.26857C42.0674 2.87758 41.5694 3.37566 40.9603 3.37566H13.6538C13.0447 3.37566 12.5467 2.87725 12.5467 2.26857C12.5467 1.65956 13.0447 1.16148 13.6538 1.16148ZM7.48856 1.63828C7.83683 1.63828 8.11882 1.91989 8.11882 2.26853C8.11882 2.61679 7.83684 2.89879 7.48856 2.89879C7.13993 2.89879 6.85831 2.6168 6.85831 2.26853C6.85831 1.91989 7.13993 1.63828 7.48856 1.63828ZM5.59706 1.63828C5.94533 1.63828 6.22732 1.92026 6.22732 2.26853C6.22732 2.61679 5.94534 2.89879 5.59706 2.89879C5.24917 2.89879 4.96681 2.6168 4.96681 2.26853C4.96681 1.91989 5.24916 1.63828 5.59706 1.63828ZM3.70631 1.63828C4.05458 1.63828 4.33657 1.92026 4.33657 2.26853C4.33657 2.61679 4.05458 2.89879 3.70631 2.89879C3.35768 2.89879 3.07569 2.6168 3.07569 2.26853C3.07569 1.91989 3.35768 1.63828 3.70631 1.63828ZM46.4948 40.6448H0.738189V4.48265H46.4948V40.6448Z" fill="#2734E7"/>
</g>
<path d="M21.4022 20.3494H5.16656V36.585H21.4022V20.3494ZM20.6643 35.8472H5.90427V21.0872H20.6643V35.8472Z" fill="#2734E7"/>
<path d="M25.83 20.3494H42.0656V21.0873H25.83V20.3494Z" fill="#2734E7"/>
<path d="M25.83 22.5638H42.0656V23.3017H25.83V22.5638Z" fill="#2734E7"/>
<path d="M25.83 24.7772H42.0656V25.5151H25.83V24.7772Z" fill="#2734E7"/>
<path d="M25.83 26.9916H42.0656V27.7295H25.83V26.9916Z" fill="#2734E7"/>
<path d="M25.83 29.2059H42.0656V29.9438H25.83V29.2059Z" fill="#2734E7"/>
<path d="M25.83 31.4194H42.0656V32.1573H25.83V31.4194Z" fill="#2734E7"/>
<path d="M25.83 33.6337H42.0656V34.3717H25.83V33.6337Z" fill="#2734E7"/>
<path d="M25.83 35.8481H42.0656V36.586H25.83V35.8481Z" fill="#2734E7"/>
<path d="M42.0666 8.54156H5.16656V16.6598H42.0666V8.54156ZM41.3283 15.9218H5.90391V9.27985H41.3283V15.9218Z" fill="#2734E7"/>
</svg>
