<svg width="26" height="42" viewBox="0 0 26 42" fill="none" xmlns="http://www.w3.org/2000/svg">
<path d="M25.705 13.6791C25.705 6.68887 19.9899 0.97406 13 0.97406C6.01009 0.97406 0.294998 6.68915 0.294998 13.6791C0.294998 16.2297 1.05086 18.5911 2.37325 20.6221C2.37325 20.7166 12.3867 40.649 12.3867 40.649C12.5284 40.8852 12.7646 41.0269 13.0008 41.0269C13.2843 41.0269 13.5205 40.8852 13.615 40.649L23.3921 20.953C24.8555 18.8279 25.7059 16.3717 25.7059 13.6793L25.705 13.6791ZM5.72593 16.3242C6.15111 16.5132 6.52903 16.6549 7.33178 16.6549C8.13488 16.6549 8.51247 16.5132 8.93762 16.3242C9.41004 16.1353 9.97656 15.899 11.0631 15.899C12.1493 15.899 12.7162 16.1352 13.1886 16.3242C13.6138 16.5132 13.9917 16.6549 14.7945 16.6549C15.5976 16.6549 15.9752 16.5132 16.4003 16.3242C16.92 16.1353 17.4392 15.899 18.5258 15.899C19.612 15.899 20.1789 16.1352 20.6513 16.3242C21.0765 16.5132 21.4544 16.6549 22.2572 16.6549C22.6351 16.6549 22.9658 16.9856 22.9658 17.3635C22.9658 17.7415 22.6351 18.0721 22.2572 18.0721C21.171 18.0721 20.6041 17.8359 20.1317 17.647C19.7065 17.458 19.3286 17.3163 18.5258 17.3163C17.7227 17.3163 17.3451 17.458 16.92 17.647C16.4003 17.8359 15.881 18.0721 14.7945 18.0721C13.7083 18.0721 13.1414 17.8359 12.669 17.647C12.2438 17.458 11.8659 17.3163 11.0631 17.3163C10.26 17.3163 9.88243 17.458 9.45728 17.647C8.98486 17.8359 8.41834 18.0721 7.33178 18.0721C6.24559 18.0721 5.67869 17.8359 5.20628 17.647C4.7811 17.458 4.40318 17.3163 3.60044 17.3163C3.22251 17.3163 2.89182 16.9856 2.89182 16.6077C2.89182 16.2297 3.2225 15.899 3.60044 15.899C4.687 15.899 5.2539 16.1352 5.72593 16.3242ZM4.7815 20.9531C4.7815 20.5752 5.11218 20.2445 5.49012 20.2445C6.3877 20.2445 6.81246 20.4335 7.23771 20.6224C7.5684 20.7641 7.85185 20.8586 8.46565 20.8586C9.07979 20.8586 9.36323 20.7641 9.69358 20.6224C10.1188 20.4335 10.5439 20.2445 11.4412 20.2445C12.3388 20.2445 12.7635 20.4335 13.1888 20.6224C13.5195 20.7641 13.8029 20.8586 14.4167 20.8586C15.0308 20.8586 15.3143 20.7641 15.6446 20.6224C16.0698 20.4335 16.495 20.2445 17.3922 20.2445C18.2898 20.2445 18.7146 20.4335 19.1398 20.6224C19.4705 20.7641 19.754 20.8586 20.3678 20.8586C20.7457 20.8586 21.0764 21.1893 21.0764 21.5672C21.0764 21.9452 20.7457 22.2759 20.3678 22.2759C19.4702 22.2759 19.0454 22.0869 18.6202 21.8979C18.2895 21.7562 18.006 21.6617 17.3922 21.6617C16.7781 21.6617 16.4947 21.7562 16.1643 21.8979C15.7391 22.0869 15.314 22.2759 14.4167 22.2759C13.5191 22.2759 13.0944 22.0869 12.6691 21.8979C12.3384 21.7562 12.055 21.6617 11.4412 21.6617C10.827 21.6617 10.5436 21.7562 10.2132 21.8979C9.78807 22.0869 9.3629 22.2759 8.46565 22.2759C7.56807 22.2759 7.1433 22.0869 6.71805 21.8979C6.38737 21.7562 6.10392 21.6617 5.49012 21.6617C5.06494 21.6614 4.7815 21.3307 4.7815 20.9531ZM13 2.39062C21.4071 2.57958 24.0053 10.2785 24.2416 13.9622C24.2416 14.1984 24.0526 14.3874 23.8164 14.3874C23.2495 14.3401 22.8716 14.1512 22.4468 14.0094C21.8327 13.7732 21.1716 13.4898 19.8489 13.4898C18.5265 13.4898 17.8651 13.7732 17.251 14.0094C16.6841 14.2456 16.212 14.4346 15.1727 14.4346C14.1338 14.4346 13.6614 14.2456 13.1417 14.0094C12.5276 13.7732 11.8665 13.4898 10.5438 13.4898C9.22148 13.4898 8.56007 13.7732 7.94592 14.0094C7.37902 14.2456 6.90698 14.4346 5.91492 14.4346C4.87598 14.4346 4.40357 14.2456 3.88392 14.0094C3.4115 13.8205 2.89223 13.5843 2.08907 13.537C1.90011 13.537 1.75839 13.3481 1.75839 13.1591C2.0422 7.16097 7.00183 2.29534 13 2.39003L13 2.39062ZM13 38.7122L5.58456 23.9756C7.66281 25.487 10.2135 26.3845 13 26.3845C15.6924 26.3845 18.1954 25.5342 20.2737 24.07L13 38.7122Z" fill="#ED0899"/>
<path d="M9.45719 9.23906H10.0713C10.1658 9.52251 10.2603 9.75872 10.402 9.99492L9.97683 10.4201C9.69339 10.7035 9.69339 11.1287 9.97683 11.4118C10.1186 11.5535 10.3075 11.6007 10.4965 11.6007C10.6855 11.6007 10.8744 11.5535 11.0161 11.4118L11.4413 10.9866C11.6775 11.1283 11.961 11.2228 12.2444 11.3173V11.8842C12.2444 12.2621 12.5751 12.5928 12.953 12.5928C13.331 12.5928 13.6617 12.2621 13.6617 11.8842V11.3173C13.9451 11.2228 14.2286 11.1283 14.4648 10.9866L14.8899 11.4118C15.0317 11.5535 15.2206 11.6007 15.4096 11.6007C15.5986 11.6007 15.7875 11.5535 15.9292 11.4118C16.2127 11.1283 16.2127 10.7032 15.9292 10.4201L15.5041 9.99492C15.6458 9.75872 15.7403 9.47527 15.8348 9.19182H16.3061C16.684 9.19182 17.0147 8.86114 17.0147 8.4832C17.0147 8.10527 16.684 7.77495 16.3061 7.77495H15.6919C15.5974 7.49151 15.503 7.25529 15.3612 7.01909L15.7864 6.59392C16.0699 6.31047 16.0699 5.8853 15.7864 5.60223C15.503 5.31878 15.0778 5.31878 14.7947 5.60223L14.3696 6.0274C14.1334 5.88568 13.8971 5.7912 13.6609 5.74396V5.12982C13.6609 4.7519 13.3303 4.4212 12.9523 4.4212C12.5744 4.4212 12.2437 4.75189 12.2437 5.12982V5.74396C11.9603 5.83844 11.6768 5.93292 11.3934 6.07464L10.9682 5.64947C10.6847 5.36603 10.2596 5.36603 9.9765 5.64947C9.69305 5.93291 9.69305 6.35809 9.9765 6.64116L10.4017 7.06633C10.2599 7.30254 10.1655 7.58599 10.071 7.82219H9.45685C9.07892 7.82219 8.74823 8.15288 8.74823 8.53081C8.74896 8.90837 9.07963 9.23906 9.45719 9.23906ZM12.9054 7.06631C13.7085 7.06631 14.3695 7.72769 14.3695 8.53041C14.3695 9.33351 13.7081 10.0417 12.9054 10.0417C12.1023 10.0417 11.3941 9.38037 11.3941 8.53041C11.3937 7.72767 12.0551 7.06631 12.9054 7.06631Z" fill="#ED0899"/>
</svg>
