<svg width="55" height="51" viewBox="0 0 55 51" fill="none" xmlns="http://www.w3.org/2000/svg">
<path d="M27.0747 42.9295C25.9445 42.9295 25.0182 43.8558 25.0182 44.9861C25.0182 46.1164 25.9444 47.0427 27.0747 47.0427C28.2136 47.0427 29.1313 46.1164 29.1313 44.9861C29.1313 43.8558 28.2133 42.9295 27.0747 42.9295ZM27.0747 45.9888C26.5224 45.9888 26.0806 45.5383 26.0806 44.9947C26.0806 44.4507 26.5311 44.0006 27.0747 44.0006C27.6187 44.0006 28.0689 44.4511 28.0689 44.9947C28.0689 45.5383 27.627 45.9888 27.0747 45.9888Z" fill="#2734E7"/>
<path d="M24.4485 18.149V9.14923H15.4487V18.149H24.4485ZM17.5227 12.2682C17.5227 10.934 18.6103 9.84637 19.9445 9.84637C21.2787 9.84637 22.3663 10.934 22.3663 12.2682C22.3663 12.914 22.1028 13.509 21.6866 13.9425C22.6638 14.5374 23.3182 15.5998 23.3182 16.8235C23.3182 17.1719 23.0377 17.4523 22.6894 17.4523C22.3411 17.4523 22.0606 17.1719 22.0606 16.8235C22.0606 15.6507 21.1086 14.6905 19.9275 14.6905C18.7464 14.6905 17.7945 15.6424 17.7945 16.8235C17.7945 17.1719 17.514 17.4523 17.1657 17.4523C16.8173 17.4523 16.5368 17.1719 16.5368 16.8235C16.5368 15.5998 17.1996 14.5374 18.1685 13.9425C17.7858 13.5089 17.5227 12.9227 17.5227 12.2682Z" fill="#2734E7"/>
<path d="M21.1176 12.2675C21.1176 12.9155 20.5922 13.4404 19.9447 13.4404C19.2972 13.4404 18.7719 12.9155 18.7719 12.2675C18.7719 11.62 19.2972 11.0947 19.9447 11.0947C20.5922 11.0947 21.1176 11.62 21.1176 12.2675Z" fill="#2734E7"/>
<path d="M38.0806 12.0894C38.429 12.0894 38.7095 11.8089 38.7095 11.4606C38.7095 11.1122 38.429 10.8318 38.0806 10.8318H36.8656C36.5173 10.8318 36.2368 11.1122 36.2368 11.4606C36.2368 11.8089 36.5173 12.0894 36.8656 12.0894H38.0806Z" fill="#2734E7"/>
<path d="M34.6551 11.4604C34.6551 11.1121 34.3746 10.8316 34.0262 10.8316H27.8988C27.5505 10.8316 27.27 11.1121 27.27 11.4604C27.27 11.8087 27.5505 12.0892 27.8988 12.0892H34.0262C34.3746 12.0892 34.6551 11.8087 34.6551 11.4604Z" fill="#2734E7"/>
<path d="M33.6698 15.1231H38.0721C38.4204 15.1231 38.7009 14.8426 38.7009 14.4943C38.7009 14.1459 38.4204 13.8654 38.0721 13.8654H33.6698C33.3215 13.8654 33.041 14.1459 33.041 14.4943C33.0492 14.8426 33.3297 15.1231 33.6698 15.1231Z" fill="#2734E7"/>
<path d="M27.8997 15.1231H30.4319C30.7803 15.1231 31.0608 14.8426 31.0608 14.4943C31.0608 14.1459 30.7803 13.8654 30.4319 13.8654H27.8997C27.5513 13.8654 27.2708 14.1459 27.2708 14.4943C27.2795 14.8426 27.5596 15.1231 27.8997 15.1231Z" fill="#2734E7"/>
<path d="M35.1226 18.149H38.0802C38.4285 18.149 38.709 17.8685 38.709 17.5202C38.709 17.1718 38.4285 16.8914 38.0802 16.8914H35.1226C34.7743 16.8914 34.4938 17.1718 34.4938 17.5202C34.4934 17.8685 34.7739 18.149 35.1226 18.149Z" fill="#2734E7"/>
<path d="M27.8997 18.149H32.0127C32.361 18.149 32.6415 17.8685 32.6415 17.5202C32.6415 17.1718 32.361 16.8914 32.0127 16.8914H27.8997C27.5513 16.8914 27.2708 17.1718 27.2708 17.5202C27.2708 17.8685 27.5596 18.149 27.8997 18.149Z" fill="#2734E7"/>
<path d="M23.2762 1.92625H37.4761C39.0569 1.92625 40.3403 3.21788 40.3485 4.79039L40.3489 5.78452H30.3972C30.0997 5.78452 29.8619 6.03109 29.8619 6.31985C29.8619 6.60861 30.0997 6.84692 30.3972 6.84692H40.3485V18.7535C40.3485 19.0509 40.5864 19.2888 40.8756 19.2888C41.1643 19.2888 41.4109 19.0509 41.4109 18.7535V4.79069C41.4109 2.62369 39.6431 0.864594 37.4761 0.864594H23.2762C22.9787 0.864594 22.7409 1.10247 22.7409 1.39167C22.7409 1.68912 22.9787 1.927 23.2762 1.927L23.2762 1.92625Z" fill="#2734E7"/>
<path d="M41.819 29.834L40.3318 31.3212C40.1278 31.5252 40.1278 31.8653 40.3318 32.0692C40.434 32.1714 40.5697 32.2223 40.7058 32.2223C40.8419 32.2223 40.9776 32.1714 41.0798 32.0692L42.567 30.582C42.771 30.378 42.771 30.038 42.567 29.834C42.3631 29.63 42.0317 29.63 41.819 29.834Z" fill="#2734E7"/>
<path d="M0.730096 26.434H29.6409C29.9384 26.434 30.1762 26.1962 30.1762 25.8987V21.2077C30.1762 20.9189 29.9384 20.6723 29.6409 20.6723H13.8V6.84539H27.814C28.1115 6.84539 28.3493 6.60751 28.3493 6.31832C28.3493 6.02955 28.1197 5.79995 27.831 5.79124C27.8227 5.78298 27.8227 5.78298 27.8144 5.78298H13.8005V4.78842C13.8092 3.21636 15.0921 1.92428 16.6728 1.92428H18.1771C18.4659 1.92428 18.7042 1.68641 18.7042 1.38895C18.7042 1.10019 18.4746 0.870583 18.1858 0.861877H16.6729C14.5059 0.861877 12.7381 2.62097 12.7381 4.78798V20.6712L0.730225 20.6716C0.432767 20.6716 0.194893 20.9095 0.194893 21.2069V25.898C0.20359 26.1954 0.441462 26.4333 0.730225 26.4333L0.730096 26.434ZM29.1143 25.3716H24.0493V21.743H29.1143V25.3716ZM1.26559 21.7348H22.9868V25.3634H1.26559V21.7348Z" fill="#2734E7"/>
<path d="M15.432 23.0185H3.91736C3.6199 23.0185 3.38203 23.2564 3.38203 23.5538C3.38203 23.8513 3.6199 24.0892 3.91736 24.0892L15.432 24.0896C15.7295 24.0896 15.9674 23.8517 15.9674 23.5543C15.9678 23.2568 15.7295 23.0185 15.432 23.0185Z" fill="#2734E7"/>
<path d="M20.3271 23.0185H18.1262C17.8287 23.0185 17.5908 23.2564 17.5908 23.5538C17.5908 23.8513 17.8287 24.0892 18.1262 24.0892H20.3271C20.6246 24.0892 20.8625 23.8513 20.8625 23.5538C20.8629 23.2568 20.6246 23.0185 20.3271 23.0185Z" fill="#2734E7"/>
<path d="M26.3355 24.4457C26.5225 24.4457 26.7008 24.3861 26.8708 24.2926L27.4318 24.8536C27.4914 24.9132 27.5762 24.9471 27.6614 24.9471C27.7462 24.9471 27.8228 24.9132 27.8911 24.8536C28.0185 24.7262 28.0185 24.5305 27.8911 24.4031L27.3301 23.8421C27.5679 23.4085 27.5171 22.8562 27.1518 22.4909C26.7012 22.0491 25.9789 22.0491 25.5371 22.4909C25.0952 22.9328 25.0952 23.6638 25.5371 24.1139C25.7493 24.3352 26.038 24.4457 26.3355 24.4457ZM25.9702 22.9501C26.0724 22.8479 26.1998 22.8058 26.3272 22.8058C26.4547 22.8058 26.5908 22.8566 26.6843 22.9501C26.8795 23.1454 26.8795 23.4685 26.6843 23.6642C26.489 23.8595 26.1659 23.8595 25.9702 23.6642C25.7749 23.4685 25.775 23.1458 25.9702 22.9501Z" fill="#2734E7"/>
<path d="M29.6408 33.7004C29.9383 33.7004 30.1762 33.4625 30.1762 33.1651V28.4741C30.1762 28.1853 29.9383 27.9387 29.6408 27.9387H0.730038C0.43258 27.9387 0.194706 28.1766 0.194706 28.4741V33.1738C0.194706 33.4625 0.43258 33.7091 0.730038 33.7091H29.6408V33.7004ZM29.1142 32.6385H24.0492V29.0011H29.1142V32.6385ZM1.26547 29.0011H22.9867V32.6385H1.26547V29.0011Z" fill="#2734E7"/>
<path d="M6.08492 30.2927H3.91747C3.62002 30.2927 3.38214 30.5305 3.38214 30.828C3.38214 31.1255 3.62002 31.3633 3.91747 31.3633H6.08492C6.38238 31.3633 6.62025 31.1255 6.62025 30.828C6.62025 30.5305 6.38194 30.2927 6.08492 30.2927Z" fill="#2734E7"/>
<path d="M20.3271 30.2927H8.78686C8.4894 30.2927 8.25152 30.5305 8.25152 30.828C8.25152 31.1255 8.4894 31.3633 8.78686 31.3633H20.336C20.6335 31.3633 20.8714 31.1255 20.8714 30.828C20.8714 30.5305 20.6248 30.2927 20.3273 30.2927H20.3271Z" fill="#2734E7"/>
<path d="M26.3355 31.721C26.5308 31.721 26.7095 31.6532 26.8795 31.5679L27.4318 32.1202C27.4914 32.1798 27.5762 32.2137 27.6614 32.2137C27.7462 32.2137 27.8228 32.1798 27.8911 32.1202C28.0185 31.9928 28.0185 31.7971 27.8911 31.6697L27.3388 31.1087C27.4323 30.9387 27.4918 30.7604 27.4918 30.5647C27.4918 30.2585 27.3727 29.9698 27.1605 29.7575C26.7269 29.324 25.9706 29.324 25.5458 29.7575C25.3331 29.9702 25.2144 30.259 25.2144 30.5647C25.2144 30.8708 25.3335 31.1596 25.5458 31.3718C25.7406 31.6023 26.0298 31.721 26.3355 31.721ZM25.9702 30.2168C26.0637 30.1233 26.1911 30.0724 26.3272 30.0724C26.4634 30.0724 26.5908 30.1233 26.6843 30.2168C26.7778 30.3103 26.8287 30.4377 26.8287 30.5738C26.8287 30.7099 26.7778 30.8373 26.6843 30.9308C26.489 31.1178 26.1572 31.1178 25.9702 30.9308C25.8767 30.8373 25.8258 30.7099 25.8258 30.5738C25.8258 30.4377 25.8767 30.3103 25.9702 30.2168Z" fill="#2734E7"/>
<path d="M51.5335 25.5167C51.5248 25.4997 51.5248 25.4828 51.5079 25.4658C51.4992 25.4571 51.4822 25.4489 51.4739 25.4319C51.4483 25.4062 51.4231 25.381 51.3974 25.3554C51.3717 25.3384 51.3465 25.3127 51.3126 25.2958C51.2869 25.2788 51.253 25.2701 51.2191 25.2619C51.1852 25.2532 51.1513 25.2449 51.1169 25.2449C51.0999 25.2449 51.0912 25.2362 51.0743 25.2362H39.3214C39.3044 25.2362 39.2957 25.2449 39.2788 25.2449C39.2448 25.2449 39.2109 25.2536 39.1766 25.2619C39.1426 25.2706 39.117 25.2788 39.0831 25.2958C39.0491 25.3127 39.0235 25.3297 38.9983 25.3554C38.9726 25.381 38.9474 25.398 38.9217 25.4319C38.913 25.4406 38.8961 25.4489 38.8878 25.4658C38.8791 25.4828 38.8708 25.4997 38.8621 25.5167C38.8452 25.5506 38.8282 25.5763 38.8195 25.6102C38.8108 25.6441 38.8026 25.678 38.7939 25.7207C38.7939 25.7376 38.7852 25.7546 38.7852 25.7715V33.0884C38.7852 33.3771 39.023 33.6237 39.3205 33.6237H51.0734C51.3709 33.6237 51.6087 33.3858 51.6087 33.0884V25.7715C51.6087 25.7546 51.6 25.7376 51.6 25.7207C51.6 25.6867 51.5914 25.6528 51.5744 25.6102C51.5587 25.5758 51.5505 25.5506 51.5335 25.5167ZM49.4174 26.3069L45.1938 29.3153L40.9703 26.3069H49.4174ZM39.8484 32.5529V26.7995L44.8878 30.3942C44.9813 30.462 45.0917 30.4964 45.1939 30.4964C45.2961 30.4964 45.4066 30.4625 45.5001 30.3942L50.5395 26.7995V32.5529H39.8484Z" fill="#2734E7"/>
<path d="M48.7459 30.0043C48.5419 29.8004 48.2018 29.8004 47.9979 30.0043C47.7939 30.2083 47.7939 30.5484 47.9979 30.7523L49.1451 31.8996C49.2473 32.0018 49.383 32.0526 49.5191 32.0526C49.6552 32.0526 49.7909 32.0018 49.8931 31.8996C50.097 31.6956 50.097 31.3555 49.8931 31.1516L48.7459 30.0043Z" fill="#2734E7"/>
<path d="M36.8059 24.7519C36.6615 25.0067 36.755 25.3298 37.0099 25.4742C37.2564 25.6103 37.5961 25.5081 37.7322 25.2702C39.2447 22.568 42.1001 20.8849 45.1937 20.8849C49.2472 20.8849 52.7658 23.766 53.573 27.7346V27.7433V27.752C53.6239 27.9899 53.8448 28.1686 54.0913 28.1686C54.1253 28.1686 54.1592 28.1686 54.1935 28.1599C54.4401 28.109 54.6184 27.8881 54.6271 27.6415C54.6271 27.6076 54.6184 27.5737 54.6101 27.5311C53.7178 23.0697 49.7578 19.8234 45.1942 19.8234C41.7178 19.823 38.5055 21.7094 36.8059 24.7519Z" fill="#2734E7"/>
<path d="M54.2688 28.8989C53.9714 28.8989 53.7335 29.1367 53.7335 29.4342C53.7248 34.1339 49.8923 37.9665 45.193 37.9747C40.6463 37.9747 36.8986 34.414 36.6607 29.8761C36.6437 29.5873 36.3889 29.3577 36.0997 29.3746C35.9636 29.3833 35.8279 29.4425 35.7344 29.5529C35.6409 29.6551 35.59 29.7908 35.5983 29.9352C35.7683 33.275 37.6465 36.1304 40.3489 37.7195V39.8439H30.2019L20.4119 39.8447H13.8004V35.2132C13.8004 34.9158 13.5626 34.6779 13.2734 34.6779C12.9846 34.6779 12.7463 34.9075 12.738 35.1963V35.2132V46.2017C12.738 48.3687 14.5058 50.1278 16.6728 50.1278H24.9246C25.222 50.1278 25.4599 49.8899 25.4599 49.6007C25.4599 49.3032 25.222 49.0653 24.9246 49.0653H16.6728C15.0921 49.0653 13.8087 47.7737 13.8004 46.2012V40.8983H40.3489V46.2012C40.3402 47.7733 39.0572 49.0653 37.4765 49.0653H30.0236C29.7349 49.0653 29.4966 49.3032 29.4966 49.6007C29.4966 49.8895 29.7344 50.1278 30.0236 50.1278H30.0323H37.477C39.644 50.1278 41.4031 48.3687 41.4031 46.2017V40.406C41.4031 40.3891 41.4117 40.3804 41.4117 40.3634V38.2473C42.5759 38.7487 43.8505 39.0292 45.1935 39.0292C50.4877 39.0292 54.7964 34.7205 54.7964 29.4262C54.796 29.1366 54.5577 28.8987 54.2689 28.8987L54.2688 28.8989Z" fill="#2734E7"/>
</svg>
